<!-- <svg viewBox="30 30 150 150" xmlns="http://www.w3.org/2000/svg">
  <path fill="#FFFAFA"
    d="M63.7,-23.7C77.6,-12.6,80.6,17.8,68.2,29C55.7,40.3,27.9,32.3,1.4,31.4C-25,30.6,-50,37,-60,27.2C-69.9,17.4,-64.8,-8.5,-52.3,-18.8C-39.8,-29.1,-19.9,-23.7,2.5,-25.2C24.9,-26.6,49.7,-34.8,63.7,-23.7Z"
    transform="translate(100 100)" />
</svg> -->

<svg id="visual" viewBox="0 0 900 450" width="140" height="70" xmlns="http://www.w3.org/2000/svg"
  xmlns:xlink="http://www.w3.org/1999/xlink" version="1.1">
  <g transform="translate(453.31028575877235 238.70237120409348)">
    <path
      d="M121.3 -160C171.7 -130.4 237.1 -114.3 270.9 -73.2C304.7 -32 306.9 34.2 273 73.3C239.1 112.5 169.2 124.5 117.6 147.3C66.1 170 33.1 203.5 -1.5 205.6C-36.1 207.6 -72.1 178.2 -125.6 156.1C-179.1 134 -250 119.1 -282.6 77.9C-315.1 36.7 -309.3 -31 -273.7 -73C-238.1 -115.1 -172.8 -131.6 -122.3 -161.1C-71.7 -190.7 -35.9 -233.4 -0.2 -233.1C35.5 -232.8 70.9 -189.6 121.3 -160"
      fill="#FFFAFA"></path>
  </g>
</svg>